<svg width="369" height="141" viewBox="0 0 369 141" fill="none" xmlns="http://www.w3.org/2000/svg">
<mask id="mask0" mask-type="alpha" maskUnits="userSpaceOnUse" x="0" y="0" width="454" height="239">
<circle cx="217" cy="2.5" r="2.5" transform="rotate(90 217 2.5)" fill="#3182CE"/>
<circle cx="197.5" cy="2.5" r="2.5" transform="rotate(90 197.5 2.5)" fill="#3182CE"/>
<circle cx="178" cy="2.5" r="2.5" transform="rotate(90 178 2.5)" fill="#3182CE"/>
<circle cx="158.5" cy="2.5" r="2.5" transform="rotate(90 158.5 2.5)" fill="#3182CE"/>
<circle cx="139" cy="2.5" r="2.5" transform="rotate(90 139 2.5)" fill="#3182CE"/>
<circle cx="119.5" cy="2.5" r="2.5" transform="rotate(90 119.5 2.5)" fill="#3182CE"/>
<circle cx="100" cy="2.5" r="2.5" transform="rotate(90 100 2.5)" fill="#3182CE"/>
<circle cx="80.5" cy="2.5" r="2.5" transform="rotate(90 80.5 2.5)" fill="#3182CE"/>
<circle cx="61" cy="2.5" r="2.5" transform="rotate(90 61 2.5)" fill="#3182CE"/>
<circle cx="41.5" cy="2.5" r="2.5" transform="rotate(90 41.5 2.5)" fill="#3182CE"/>
<circle cx="22" cy="2.5" r="2.5" transform="rotate(90 22 2.5)" fill="#3182CE"/>
<circle cx="2.5" cy="2.5" r="2.5" transform="rotate(90 2.5 2.5)" fill="#3182CE"/>
<circle cx="217" cy="22" r="2.5" transform="rotate(90 217 22)" fill="#3182CE"/>
<circle cx="197.5" cy="22" r="2.5" transform="rotate(90 197.5 22)" fill="#3182CE"/>
<circle cx="178" cy="22" r="2.5" transform="rotate(90 178 22)" fill="#3182CE"/>
<circle cx="158.5" cy="22" r="2.5" transform="rotate(90 158.5 22)" fill="#3182CE"/>
<circle cx="139" cy="22" r="2.5" transform="rotate(90 139 22)" fill="#3182CE"/>
<circle cx="119.5" cy="22" r="2.5" transform="rotate(90 119.5 22)" fill="#3182CE"/>
<circle cx="100" cy="22" r="2.5" transform="rotate(90 100 22)" fill="#3182CE"/>
<circle cx="80.5" cy="22" r="2.5" transform="rotate(90 80.5 22)" fill="#3182CE"/>
<circle cx="61" cy="22" r="2.5" transform="rotate(90 61 22)" fill="#3182CE"/>
<circle cx="41.5" cy="22" r="2.5" transform="rotate(90 41.5 22)" fill="#3182CE"/>
<circle cx="22" cy="22" r="2.5" transform="rotate(90 22 22)" fill="#3182CE"/>
<circle cx="2.5" cy="22" r="2.5" transform="rotate(90 2.5 22)" fill="#3182CE"/>
<circle cx="217" cy="41.5" r="2.5" transform="rotate(90 217 41.5)" fill="#3182CE"/>
<circle cx="197.5" cy="41.5" r="2.5" transform="rotate(90 197.5 41.5)" fill="#3182CE"/>
<circle cx="178" cy="41.5" r="2.5" transform="rotate(90 178 41.5)" fill="#3182CE"/>
<circle cx="158.5" cy="41.5" r="2.5" transform="rotate(90 158.5 41.5)" fill="#3182CE"/>
<circle cx="139" cy="41.5" r="2.5" transform="rotate(90 139 41.5)" fill="#3182CE"/>
<circle cx="119.5" cy="41.5" r="2.5" transform="rotate(90 119.5 41.5)" fill="#3182CE"/>
<circle cx="100" cy="41.5" r="2.5" transform="rotate(90 100 41.5)" fill="#3182CE"/>
<circle cx="80.5" cy="41.5" r="2.5" transform="rotate(90 80.5 41.5)" fill="#3182CE"/>
<circle cx="61" cy="41.5" r="2.5" transform="rotate(90 61 41.5)" fill="#3182CE"/>
<circle cx="41.5" cy="41.5" r="2.5" transform="rotate(90 41.5 41.5)" fill="#3182CE"/>
<circle cx="22" cy="41.5" r="2.5" transform="rotate(90 22 41.5)" fill="#3182CE"/>
<circle cx="2.5" cy="41.5" r="2.5" transform="rotate(90 2.5 41.5)" fill="#3182CE"/>
<circle cx="217" cy="61" r="2.5" transform="rotate(90 217 61)" fill="#3182CE"/>
<circle cx="197.5" cy="61" r="2.5" transform="rotate(90 197.5 61)" fill="#3182CE"/>
<circle cx="178" cy="61" r="2.5" transform="rotate(90 178 61)" fill="#3182CE"/>
<circle cx="158.5" cy="61" r="2.5" transform="rotate(90 158.5 61)" fill="#3182CE"/>
<circle cx="139" cy="61" r="2.5" transform="rotate(90 139 61)" fill="#3182CE"/>
<circle cx="119.5" cy="61" r="2.5" transform="rotate(90 119.5 61)" fill="#3182CE"/>
<circle cx="100" cy="61" r="2.5" transform="rotate(90 100 61)" fill="#3182CE"/>
<circle cx="80.5" cy="61" r="2.5" transform="rotate(90 80.5 61)" fill="#3182CE"/>
<circle cx="61" cy="61" r="2.5" transform="rotate(90 61 61)" fill="#3182CE"/>
<circle cx="41.5" cy="61" r="2.5" transform="rotate(90 41.5 61)" fill="#3182CE"/>
<circle cx="22" cy="61" r="2.5" transform="rotate(90 22 61)" fill="#3182CE"/>
<circle cx="2.5" cy="61" r="2.5" transform="rotate(90 2.5 61)" fill="#3182CE"/>
<circle cx="217" cy="80.5" r="2.5" transform="rotate(90 217 80.5)" fill="#3182CE"/>
<circle cx="197.5" cy="80.5" r="2.5" transform="rotate(90 197.5 80.5)" fill="#3182CE"/>
<circle cx="178" cy="80.5" r="2.5" transform="rotate(90 178 80.5)" fill="#3182CE"/>
<circle cx="158.5" cy="80.5" r="2.5" transform="rotate(90 158.5 80.5)" fill="#3182CE"/>
<circle cx="139" cy="80.5" r="2.5" transform="rotate(90 139 80.5)" fill="#3182CE"/>
<circle cx="119.5" cy="80.5" r="2.5" transform="rotate(90 119.5 80.5)" fill="#3182CE"/>
<circle cx="100" cy="80.5" r="2.5" transform="rotate(90 100 80.5)" fill="#3182CE"/>
<circle cx="80.5" cy="80.5" r="2.5" transform="rotate(90 80.5 80.5)" fill="#3182CE"/>
<circle cx="61" cy="80.5" r="2.5" transform="rotate(90 61 80.5)" fill="#3182CE"/>
<circle cx="41.5" cy="80.5" r="2.5" transform="rotate(90 41.5 80.5)" fill="#3182CE"/>
<circle cx="22" cy="80.5" r="2.5" transform="rotate(90 22 80.5)" fill="#3182CE"/>
<circle cx="2.5" cy="80.5" r="2.5" transform="rotate(90 2.5 80.5)" fill="#3182CE"/>
<circle cx="217" cy="100" r="2.5" transform="rotate(90 217 100)" fill="#3182CE"/>
<circle cx="197.5" cy="100" r="2.5" transform="rotate(90 197.5 100)" fill="#3182CE"/>
<circle cx="178" cy="100" r="2.5" transform="rotate(90 178 100)" fill="#3182CE"/>
<circle cx="158.5" cy="100" r="2.5" transform="rotate(90 158.5 100)" fill="#3182CE"/>
<circle cx="139" cy="100" r="2.5" transform="rotate(90 139 100)" fill="#3182CE"/>
<circle cx="119.5" cy="100" r="2.5" transform="rotate(90 119.5 100)" fill="#3182CE"/>
<circle cx="100" cy="100" r="2.5" transform="rotate(90 100 100)" fill="#3182CE"/>
<circle cx="80.5" cy="100" r="2.5" transform="rotate(90 80.5 100)" fill="#3182CE"/>
<circle cx="61" cy="100" r="2.5" transform="rotate(90 61 100)" fill="#3182CE"/>
<circle cx="41.5" cy="100" r="2.5" transform="rotate(90 41.5 100)" fill="#3182CE"/>
<circle cx="22" cy="100" r="2.5" transform="rotate(90 22 100)" fill="#3182CE"/>
<circle cx="2.5" cy="100" r="2.5" transform="rotate(90 2.5 100)" fill="#3182CE"/>
<circle cx="217" cy="119.5" r="2.5" transform="rotate(90 217 119.5)" fill="#3182CE"/>
<circle cx="197.5" cy="119.5" r="2.5" transform="rotate(90 197.5 119.5)" fill="#3182CE"/>
<circle cx="178" cy="119.5" r="2.5" transform="rotate(90 178 119.5)" fill="#3182CE"/>
<circle cx="158.5" cy="119.5" r="2.5" transform="rotate(90 158.5 119.5)" fill="#3182CE"/>
<circle cx="139" cy="119.5" r="2.5" transform="rotate(90 139 119.5)" fill="#3182CE"/>
<circle cx="119.5" cy="119.5" r="2.5" transform="rotate(90 119.5 119.5)" fill="#3182CE"/>
<circle cx="100" cy="119.5" r="2.5" transform="rotate(90 100 119.5)" fill="#3182CE"/>
<circle cx="80.5" cy="119.5" r="2.5" transform="rotate(90 80.5 119.5)" fill="#3182CE"/>
<circle cx="61" cy="119.5" r="2.5" transform="rotate(90 61 119.5)" fill="#3182CE"/>
<circle cx="41.5" cy="119.5" r="2.5" transform="rotate(90 41.5 119.5)" fill="#3182CE"/>
<circle cx="22" cy="119.5" r="2.5" transform="rotate(90 22 119.5)" fill="#3182CE"/>
<circle cx="2.5" cy="119.5" r="2.5" transform="rotate(90 2.5 119.5)" fill="#3182CE"/>
<circle cx="217" cy="139" r="2.5" transform="rotate(90 217 139)" fill="#3182CE"/>
<circle cx="197.5" cy="139" r="2.5" transform="rotate(90 197.5 139)" fill="#3182CE"/>
<circle cx="178" cy="139" r="2.5" transform="rotate(90 178 139)" fill="#3182CE"/>
<circle cx="158.5" cy="139" r="2.5" transform="rotate(90 158.5 139)" fill="#3182CE"/>
<circle cx="139" cy="139" r="2.5" transform="rotate(90 139 139)" fill="#3182CE"/>
<circle cx="119.5" cy="139" r="2.5" transform="rotate(90 119.5 139)" fill="#3182CE"/>
<circle cx="100" cy="139" r="2.5" transform="rotate(90 100 139)" fill="#3182CE"/>
<circle cx="80.5" cy="139" r="2.5" transform="rotate(90 80.5 139)" fill="#3182CE"/>
<circle cx="61" cy="139" r="2.5" transform="rotate(90 61 139)" fill="#3182CE"/>
<circle cx="41.5" cy="139" r="2.5" transform="rotate(90 41.5 139)" fill="#3182CE"/>
<circle cx="22" cy="139" r="2.5" transform="rotate(90 22 139)" fill="#3182CE"/>
<circle cx="2.5" cy="139" r="2.5" transform="rotate(90 2.5 139)" fill="#3182CE"/>
<circle cx="353.5" cy="2.5" r="2.5" transform="rotate(90 353.5 2.5)" fill="#3182CE"/>
<circle cx="334" cy="2.5" r="2.5" transform="rotate(90 334 2.5)" fill="#3182CE"/>
<circle cx="314.5" cy="2.5" r="2.5" transform="rotate(90 314.5 2.5)" fill="#3182CE"/>
<circle cx="295" cy="2.5" r="2.5" transform="rotate(90 295 2.5)" fill="#3182CE"/>
<circle cx="275.5" cy="2.5" r="2.5" transform="rotate(90 275.5 2.5)" fill="#3182CE"/>
<circle cx="256" cy="2.5" r="2.5" transform="rotate(90 256 2.5)" fill="#3182CE"/>
<circle cx="236.5" cy="2.5" r="2.5" transform="rotate(90 236.5 2.5)" fill="#3182CE"/>
<circle cx="353.5" cy="22" r="2.5" transform="rotate(90 353.5 22)" fill="#3182CE"/>
<circle cx="334" cy="22" r="2.5" transform="rotate(90 334 22)" fill="#3182CE"/>
<circle cx="314.5" cy="22" r="2.5" transform="rotate(90 314.5 22)" fill="#3182CE"/>
<circle cx="295" cy="22" r="2.5" transform="rotate(90 295 22)" fill="#3182CE"/>
<circle cx="275.5" cy="22" r="2.5" transform="rotate(90 275.5 22)" fill="#3182CE"/>
<circle cx="256" cy="22" r="2.5" transform="rotate(90 256 22)" fill="#3182CE"/>
<circle cx="236.5" cy="22" r="2.5" transform="rotate(90 236.5 22)" fill="#3182CE"/>
<circle cx="353.5" cy="41.5" r="2.5" transform="rotate(90 353.5 41.5)" fill="#3182CE"/>
<circle cx="334" cy="41.5" r="2.5" transform="rotate(90 334 41.5)" fill="#3182CE"/>
<circle cx="314.5" cy="41.5" r="2.5" transform="rotate(90 314.5 41.5)" fill="#3182CE"/>
<circle cx="295" cy="41.5" r="2.5" transform="rotate(90 295 41.5)" fill="#3182CE"/>
<circle cx="275.5" cy="41.5" r="2.5" transform="rotate(90 275.5 41.5)" fill="#3182CE"/>
<circle cx="256" cy="41.5" r="2.5" transform="rotate(90 256 41.5)" fill="#3182CE"/>
<circle cx="236.5" cy="41.5" r="2.5" transform="rotate(90 236.5 41.5)" fill="#3182CE"/>
<circle cx="353.5" cy="61" r="2.5" transform="rotate(90 353.5 61)" fill="#3182CE"/>
<circle cx="334" cy="61" r="2.5" transform="rotate(90 334 61)" fill="#3182CE"/>
<circle cx="314.5" cy="61" r="2.5" transform="rotate(90 314.5 61)" fill="#3182CE"/>
<circle cx="295" cy="61" r="2.5" transform="rotate(90 295 61)" fill="#3182CE"/>
<circle cx="275.5" cy="61" r="2.5" transform="rotate(90 275.5 61)" fill="#3182CE"/>
<circle cx="256" cy="61" r="2.5" transform="rotate(90 256 61)" fill="#3182CE"/>
<circle cx="236.5" cy="61" r="2.5" transform="rotate(90 236.5 61)" fill="#3182CE"/>
<circle cx="353.5" cy="80.5" r="2.5" transform="rotate(90 353.5 80.5)" fill="#3182CE"/>
<circle cx="334" cy="80.5" r="2.5" transform="rotate(90 334 80.5)" fill="#3182CE"/>
<circle cx="314.5" cy="80.5" r="2.5" transform="rotate(90 314.5 80.5)" fill="#3182CE"/>
<circle cx="295" cy="80.5" r="2.5" transform="rotate(90 295 80.5)" fill="#3182CE"/>
<circle cx="275.5" cy="80.5" r="2.5" transform="rotate(90 275.5 80.5)" fill="#3182CE"/>
<circle cx="256" cy="80.5" r="2.5" transform="rotate(90 256 80.5)" fill="#3182CE"/>
<circle cx="236.5" cy="80.5" r="2.5" transform="rotate(90 236.5 80.5)" fill="#3182CE"/>
<circle cx="353.5" cy="100" r="2.5" transform="rotate(90 353.5 100)" fill="#3182CE"/>
<circle cx="334" cy="100" r="2.5" transform="rotate(90 334 100)" fill="#3182CE"/>
<circle cx="314.5" cy="100" r="2.5" transform="rotate(90 314.5 100)" fill="#3182CE"/>
<circle cx="295" cy="100" r="2.5" transform="rotate(90 295 100)" fill="#3182CE"/>
<circle cx="275.5" cy="100" r="2.5" transform="rotate(90 275.5 100)" fill="#3182CE"/>
<circle cx="256" cy="100" r="2.5" transform="rotate(90 256 100)" fill="#3182CE"/>
<circle cx="236.5" cy="100" r="2.5" transform="rotate(90 236.5 100)" fill="#3182CE"/>
<circle cx="353.5" cy="119.5" r="2.5" transform="rotate(90 353.5 119.5)" fill="#3182CE"/>
<circle cx="334" cy="119.5" r="2.5" transform="rotate(90 334 119.5)" fill="#3182CE"/>
<circle cx="314.5" cy="119.5" r="2.5" transform="rotate(90 314.5 119.5)" fill="#3182CE"/>
<circle cx="295" cy="119.5" r="2.5" transform="rotate(90 295 119.5)" fill="#3182CE"/>
<circle cx="275.5" cy="119.5" r="2.5" transform="rotate(90 275.5 119.5)" fill="#3182CE"/>
<circle cx="256" cy="119.5" r="2.5" transform="rotate(90 256 119.5)" fill="#3182CE"/>
<circle cx="236.5" cy="119.5" r="2.5" transform="rotate(90 236.5 119.5)" fill="#3182CE"/>
<circle cx="353.5" cy="139" r="2.5" transform="rotate(90 353.5 139)" fill="#3182CE"/>
<circle cx="334" cy="139" r="2.5" transform="rotate(90 334 139)" fill="#3182CE"/>
<circle cx="314.5" cy="139" r="2.5" transform="rotate(90 314.5 139)" fill="#3182CE"/>
<circle cx="295" cy="139" r="2.5" transform="rotate(90 295 139)" fill="#3182CE"/>
<circle cx="275.5" cy="139" r="2.5" transform="rotate(90 275.5 139)" fill="#3182CE"/>
<circle cx="256" cy="139" r="2.5" transform="rotate(90 256 139)" fill="#3182CE"/>
<circle cx="236.5" cy="139" r="2.5" transform="rotate(90 236.5 139)" fill="#3182CE"/>
</mask>
<g mask="url(#mask0)">
<rect y="-10" width="370" height="150" fill="url(#paint0_linear)"/>
</g>
<defs>
<linearGradient id="paint0_linear" x1="185" y1="-10" x2="185" y2="140" gradientUnits="userSpaceOnUse">
<stop stop-color="#7EBAF2" stop-opacity="0"/>
<stop offset="1" stop-color="#3182CE" stop-opacity="0.5"/>
</linearGradient>
</defs>
</svg>
