<svg width="152" height="174" viewBox="0 0 152 174" fill="none" xmlns="http://www.w3.org/2000/svg">
<rect x="31.278" y="18.0905" width="103.334" height="128.316" rx="9.08435" transform="rotate(5.93952 31.278 18.0905)" fill="#3182CE"/>
<rect x="24.1944" y="9.36185" width="119.232" height="144.214" rx="17.0331" transform="rotate(5.93952 24.1944 9.36185)" fill="#3182CE" stroke="#B0D5F8" stroke-width="15.8976"/>
<rect x="25.7123" y="11.2323" width="115.825" height="140.807" rx="15.3298" transform="rotate(5.93952 25.7123 11.2323)" fill="#3182CE" stroke="#3182CE" stroke-width="12.491"/>
<rect x="28.2422" y="14.3497" width="110.148" height="135.13" rx="12.491" transform="rotate(5.93952 28.2422 14.3497)" fill="#3182CE" stroke="white" stroke-width="6.81326"/>
<path d="M56.5598 87.0926L49.9885 86.4089L43.1086 89.689L42.4783 95.7469L48.5861 92.9055L48.7401 92.9215L46.6891 112.635L53.8252 113.378L56.5598 87.0926ZM69.4524 115.367C75.8826 116.036 80.7537 113.234 81.2101 108.598C81.5709 105.38 79.651 102.884 75.4637 101.981L75.485 101.776C78.6514 101.768 81.1456 99.9903 81.4257 97.0485C81.9121 92.6232 78.1401 88.9745 72.3132 88.3683C66.3579 87.7487 61.7687 90.7092 61.2423 95.5195L68.0703 96.2299C68.2615 94.6411 69.778 93.6572 71.7417 93.8615C73.5386 94.0484 74.6829 95.2702 74.4983 96.7949C74.3584 98.389 72.7521 99.3636 70.6215 99.1419L67.9519 98.8642L67.4392 103.793L70.1088 104.07C72.419 104.311 73.9187 105.608 73.7274 107.197C73.5835 108.83 72.0785 109.828 70.102 109.622C68.0484 109.409 66.6988 108.166 66.832 106.636L59.6446 105.888C59.1602 110.793 63.2276 114.719 69.4524 115.367ZM83.6111 116.477L103.787 118.576L104.38 112.877L94.1123 111.809L94.1284 111.655L96.8062 109.858C103.319 105.489 105.116 103.055 105.433 100.013C105.943 95.1104 102.26 91.4838 95.9578 90.8282C89.8357 90.1912 85.5031 93.1785 84.9404 98.7115L91.7171 99.4166C91.9339 97.2077 93.4098 96.1158 95.3863 96.3214C97.35 96.5257 98.6221 97.8905 98.4125 99.9056C98.2189 101.767 96.8997 102.849 94.7948 104.252L84.1452 111.343L83.6111 116.477Z" fill="white"/>
<path d="M77.9586 54.2643C78.9484 52.5994 81.4342 52.858 82.0601 54.691L89.9333 77.7503C90.469 79.319 89.1978 80.9145 87.5491 80.743L67.2245 78.6285C65.5757 78.4569 64.6602 76.634 65.5073 75.209L77.9586 54.2643Z" fill="white"/>
</svg>
